<?xml version="1.0" encoding="UTF-8"?><svg id="Layer_2" xmlns="http://www.w3.org/2000/svg" viewBox="0 0 3781.65 1575.19" preserveAspectRatio="none"><defs><style>.cls-1{fill:#CED6DF;}.cls-2{fill:none;}</style></defs><g id="_Layer_"><g><path class="cls-2" d="M40.7,102.1c99.86,35.32,196.82,41.64,301.43,41.74,107.49,.1,234.41-32.68,327.64,33.58,96.14,68.34,176.28,167.48,282.93,222.61,123.24,63.71,287.99,42.35,422.8,46.35,95.81,2.84,195.2,13.19,288.45,34.13,58.48,13.14,71.36,33.43,109.23,75.29,62.46,69.04,145.18,132.24,232.99,165.57,62.56,23.75,131.67,39.87,198.46,42.97,59.43,2.76,112.3-4.71,168.29,17.09,105.75,41.17,224.26,113.24,289.86,206.62,62.31,88.68,104.74,184.27,176.28,268.12,12.02,14.09,26.25,29.51,40.67,45.95,16.35,11.16,33.23,21.47,50.84,30.57,123.24,63.71,287.99,42.35,422.8,46.35,95.81,2.84,195.2,13.19,288.45,34.13,58.48,13.14,71.36,33.43,109.23,75.29,9.72,10.74,19.93,21.34,30.57,31.72V0H0V83.9c12.08,6.77,25.59,12.85,40.7,18.2Z"/><path class="cls-1" d="M3751.07,1488.46c-37.87-41.86-50.76-62.16-109.23-75.29-93.26-20.94-192.64-31.29-288.45-34.13-134.82-4-299.56,17.36-422.8-46.35-17.61-9.1-34.49-19.41-50.84-30.57-14.42-16.44-28.65-31.86-40.67-45.95-71.54-83.85-113.97-179.44-176.28-268.12-65.61-93.38-184.11-165.45-289.86-206.62-55.99-21.79-108.86-14.33-168.29-17.09-66.79-3.1-135.89-19.22-198.46-42.97-87.81-33.33-170.53-96.53-232.99-165.57-37.87-41.86-50.76-62.16-109.23-75.29-93.26-20.94-192.64-31.29-288.45-34.13-134.82-4-299.56,17.36-422.8-46.35-106.65-55.13-186.79-154.27-282.93-222.61-93.23-66.27-220.15-33.49-327.64-33.58-104.61-.09-201.57-6.42-301.43-41.74-15.12-5.35-28.62-11.43-40.7-18.2V1575.19H3781.65v-55.01c-10.64-10.37-20.85-20.97-30.57-31.72Z"/></g></g></svg>