<?xml version="1.0" encoding="UTF-8"?><svg id="Layer_2" xmlns="http://www.w3.org/2000/svg" viewBox="0 0 466.22 138.49" fill="#0A0C09">
<g>
<path d="M0,116.58L101.19,22.85H1.58V0H141.85V19.4L40.29,113.03h105.67v22.76H0v-19.21Z"/>
<path d="M151.27,84.03h29.66v2.05c0,9.83,3.06,17.22,9.19,22.2,6.12,4.97,14.81,7.46,26.07,7.46s20.22-2.63,26.35-7.88c6.12-5.25,9.19-13.1,9.19-23.55V0h29.94V81.79c0,18.09-5.91,32.07-17.72,41.92-11.81,9.85-27.64,14.78-47.47,14.78s-35.43-4.41-47.33-13.24c-11.91-8.83-17.86-22.07-17.86-39.73v-1.49Z"/>
<path d="M466.22,135.79l-41.87-53.54c4.86-1.65,9.25-3.68,13.15-6.1,12.31-7.62,18.46-18.48,18.46-32.6s-6.14-24.9-18.42-32.36c-12.28-7.46-29.39-11.19-51.34-11.19h-68.55V135.79h30.12v-48.12h38.33c2.83,0,5.57-.08,8.24-.21l36.44,48.34h35.44ZM347.77,22.48h37.4c14.92,0,25.43,1.88,31.52,5.64,6.09,3.76,9.14,8.94,9.14,15.53,.06,6.71-2.97,12.02-9.09,15.9-6.12,3.89-16.68,5.83-31.66,5.83h-37.3V22.48Z"/>
</g>
</svg>